<svg width="18" height="18" viewBox="0 0 18 18" fill="none" xmlns="http://www.w3.org/2000/svg">
<path d="M17.5007 8.63356C17.4343 3.80153 13.4656 -0.0617522 8.63356 0.000747767C3.80153 0.0632478 -0.0617522 4.0359 0.000747767 8.86794C0.067154 13.7 4.0359 17.5632 8.86794 17.5007C13.7 17.4343 17.5672 13.4656 17.5007 8.63356ZM8.75075 3.12184C9.44215 3.12184 10.0007 3.68044 10.0007 4.37184C10.0007 5.06325 9.44215 5.62184 8.75075 5.62184C8.05934 5.62184 7.50075 5.06325 7.50075 4.37184C7.50075 3.68044 8.05934 3.12184 8.75075 3.12184ZM10.4695 14.1804H7.032V13.7507H7.89137V7.50075H7.032V7.032H9.61012V13.7507H10.4695V14.1804Z" fill="#DC202F"/>
</svg>
