<svg width="17" height="17" viewBox="0 0 17 17" fill="none" xmlns="http://www.w3.org/2000/svg">
<path d="M13.5209 4.6581C13.4665 4.45393 13.3559 4.2365 13.2741 4.0461C12.2951 1.6933 10.156 0.850098 8.42875 0.850098C6.11658 0.850098 3.56998 2.4005 3.22998 5.59633V6.2493C3.22998 6.2765 3.23933 6.5213 3.25276 6.6437C3.44333 8.16673 4.64506 9.7853 5.54266 11.3083C6.50826 12.9402 7.51024 14.5453 8.50321 16.1498C9.11521 15.1027 9.72517 14.0419 10.3234 13.0219C10.4864 12.7226 10.6755 12.4234 10.8387 12.1378C10.9475 11.9475 11.1552 11.7573 11.2502 11.5803C12.2157 9.81284 13.77 8.0309 13.77 6.2765V5.5557C13.77 5.36547 13.5342 4.69907 13.5209 4.6581ZM8.47108 7.9357C7.79142 7.9357 7.0475 7.59587 6.6803 6.6573C6.62556 6.50787 6.62998 6.2085 6.62998 6.18113V5.75953C6.62998 4.56307 7.6459 4.0189 8.52973 4.0189C9.61773 4.0189 10.4594 4.88947 10.4594 5.97747C10.4594 7.06547 9.55908 7.9357 8.47108 7.9357Z" fill="#DC202F"/>
</svg>
