<svg width="14" height="14" viewBox="0 0 14 14" fill="none" xmlns="http://www.w3.org/2000/svg">
<g clip-path="url(#clip0_42_1665)">
<mask id="mask0_42_1665" style="mask-type:luminance" maskUnits="userSpaceOnUse" x="0" y="0" width="14" height="14">
<path d="M0 0H14V14H0V0Z" fill="white"/>
</mask>
<g mask="url(#mask0_42_1665)">
<path d="M12.9168 10.0972L11.6288 8.80923C11.3957 8.57615 11.1037 8.41072 10.784 8.33059C10.4642 8.25046 10.1287 8.25864 9.81326 8.35425C9.49779 8.44986 9.21421 8.62932 8.99275 8.87348C8.77129 9.11763 8.62027 9.41733 8.55579 9.7406C6.43185 9.34344 4.36611 7.28618 4.23753 5.44739C4.59867 5.38082 4.93105 5.20608 5.19063 4.94634C5.53213 4.60476 5.72397 4.14153 5.72397 3.65852C5.72397 3.17552 5.53213 2.71229 5.19063 2.37071L3.903 1.08307C3.56149 0.741603 3.09832 0.54977 2.61537 0.54977C2.13243 0.54977 1.66926 0.741603 1.32774 1.08307C-2.53515 4.94634 9.0539 16.5354 12.9168 12.6721C13.2582 12.3307 13.4501 11.8676 13.4501 11.3847C13.4501 10.9018 13.2582 10.4387 12.9168 10.0972Z" fill="#DC202F"/>
</g>
</g>
<defs>
<clipPath id="clip0_42_1665">
<rect width="14" height="14" fill="white"/>
</clipPath>
</defs>
</svg>
