<svg width="12" height="12" viewBox="0 0 12 12" fill="none" xmlns="http://www.w3.org/2000/svg">
<path d="M5.83333 0C2.625 0 0 2.625 0 5.83333C0 9.04167 2.625 11.6667 5.83333 11.6667C9.04167 11.6667 11.6667 9.04167 11.6667 5.83333C11.6667 2.625 9.04167 0 5.83333 0ZM8.28333 4.84167L5.48333 7.64167C5.25 7.875 4.9 7.875 4.66667 7.64167L3.38333 6.35833C3.15 6.125 3.15 5.775 3.38333 5.54167C3.61667 5.30833 3.96667 5.30833 4.2 5.54167L5.075 6.41667L7.46667 4.025C7.7 3.79167 8.05 3.79167 8.28333 4.025C8.51667 4.25833 8.51667 4.60833 8.28333 4.84167Z" fill="#27AE60"/>
</svg>
