<svg width="12" height="12" viewBox="0 0 12 12" fill="none" xmlns="http://www.w3.org/2000/svg">
<path d="M5.83333 0C2.625 0 0 2.625 0 5.83333C0 9.04167 2.625 11.6667 5.83333 11.6667C9.04167 11.6667 11.6667 9.04167 11.6667 5.83333C11.6667 2.625 9.04167 0 5.83333 0ZM7.875 7C7.7 7.29167 7.35 7.35 7.05833 7.23333L5.54167 6.35833C5.36667 6.24167 5.25 6.06667 5.25 5.83333V2.91667C5.25 2.56667 5.48333 2.33333 5.83333 2.33333C6.18333 2.33333 6.41667 2.56667 6.41667 2.91667V5.48333L7.64167 6.18333C7.93333 6.35833 7.99167 6.70833 7.875 7Z" fill="#DC202F"/>
</svg>
